<?xml version="1.0" standalone="no"?>
<!DOCTYPE svg PUBLIC "-//W3C//DTD SVG 20010904//EN" "http://www.w3.org/TR/2001/REC-SVG-20010904/DTD/svg10.dtd">
<!-- Created using Krita: https://krita.org -->
<svg xmlns="http://www.w3.org/2000/svg"
    xmlns:xlink="http://www.w3.org/1999/xlink"
    width="240px"
    height="60px"
    viewBox="0 0 240 60">
    <defs />
    <rect width="100%" height="100%" fill="#00000000" rx="8" ry="8" />
    <svg xmlns="http://www.w3.org/2000/svg" width="32" height="32" fill="#000000"
        viewBox="0 0 256 256">
        <a xlink:href="" target="_top">
            <path
                d="M128,80a48,48,0,1,0,48,48A48.05,48.05,0,0,0,128,80Zm0,80a32,32,0,1,1,32-32A32,32,0,0,1,128,160ZM176,24H80A56.06,56.06,0,0,0,24,80v96a56.06,56.06,0,0,0,56,56h96a56.06,56.06,0,0,0,56-56V80A56.06,56.06,0,0,0,176,24Zm40,152a40,40,0,0,1-40,40H80a40,40,0,0,1-40-40V80A40,40,0,0,1,80,40h96a40,40,0,0,1,40,40ZM192,76a12,12,0,1,1-12-12A12,12,0,0,1,192,76Z"></path>
        </a>
    </svg>
    <text x="216px" y="22px" text-anchor="end">
        <a xlink:href="" target="_top">Instagram Archiver</a></text>
    <text x="232px" y="46px" font-size="14px" fill="#e73a40" text-anchor="end">
        <a xlink:href="https://guackamollyapps.com" target="_blank">by Guackamolly Apps</a>
    </text>
</svg>